<?xml version="1.0" standalone="no"?>
<!DOCTYPE svg PUBLIC "-//W3C//DTD SVG 20010904//EN"
 "http://www.w3.org/TR/2001/REC-SVG-20010904/DTD/svg10.dtd">
<svg version="1.0" xmlns="http://www.w3.org/2000/svg"
 width="700.000000pt" height="700.000000pt" viewBox="0 0 700.000000 700.000000"
 preserveAspectRatio="xMidYMid meet">
<metadata>
Created by potrace 1.11, written by Peter Selinger 2001-2013
</metadata>
<g transform="translate(0.000000,700.000000) scale(0.100000,-0.100000)"
fill="#000000" stroke="none">
<path d="M3337 6864 c-2 -2 -78 -9 -204 -19 -18 -2 -48 -5 -65 -9 -18 -3 -55
-8 -83 -12 -200 -25 -374 -66 -595 -140 -139 -46 -328 -121 -345 -136 -5 -4
-17 -8 -27 -8 -10 0 -18 -4 -18 -10 0 -5 -5 -10 -12 -10 -18 0 -220 -105 -333
-173 -321 -192 -622 -448 -852 -722 -41 -49 -83 -99 -92 -110 -32 -39 -142
-196 -189 -273 -143 -228 -268 -497 -342 -737 -35 -112 -86 -310 -94 -369 -4
-21 -8 -41 -10 -45 -2 -3 -7 -35 -11 -71 -4 -36 -8 -67 -10 -70 -3 -4 -12
-104 -21 -215 -4 -55 -4 -403 0 -440 2 -16 7 -66 11 -110 4 -44 8 -82 10 -85
1 -3 6 -30 9 -61 4 -31 9 -67 12 -80 2 -13 7 -40 10 -59 19 -117 77 -331 134
-495 54 -155 93 -243 218 -490 82 -161 316 -489 457 -641 115 -124 223 -228
325 -314 35 -30 70 -59 76 -65 11 -10 59 -45 187 -139 139 -102 389 -241 592
-330 157 -69 426 -162 521 -180 11 -2 71 -15 134 -29 124 -28 277 -52 405 -64
157 -15 641 -6 698 12 7 2 35 6 62 9 54 6 66 8 195 32 108 20 95 18 300 58 96
19 193 37 214 40 21 4 48 8 60 11 12 3 35 7 51 10 90 15 164 27 195 31 19 2
51 6 70 9 47 7 92 13 170 21 36 3 74 8 85 10 112 23 684 22 865 0 14 -2 61 -7
105 -10 44 -4 87 -9 95 -11 8 -2 40 -6 70 -10 30 -3 78 -9 106 -13 93 -15 194
-4 259 29 90 46 141 120 151 218 8 72 -15 128 -111 271 -109 164 -185 329
-232 505 -22 87 -26 123 -28 270 -3 164 2 210 40 373 10 43 74 208 120 312
145 322 219 579 270 930 22 158 23 542 1 656 -2 12 -7 45 -11 75 -4 30 -10 72
-15 94 -5 22 -11 54 -14 70 -16 86 -66 266 -106 380 -240 685 -693 1278 -1292
1690 -59 40 -122 82 -140 92 -18 10 -34 21 -36 26 -2 4 -8 7 -14 7 -5 0 -22 8
-36 19 -56 39 -306 162 -462 227 -117 48 -432 147 -535 168 -16 4 -41 9 -55
12 -93 19 -180 36 -210 39 -19 3 -46 7 -59 9 -13 3 -51 8 -85 11 -33 3 -79 8
-101 10 -64 8 -433 23 -438 19z m2504 -3679 c1 -14 2 -28 3 -32 1 -5 6 -39 10
-77 4 -38 9 -79 11 -90 14 -87 44 -301 49 -353 7 -73 10 -70 -263 -255 -629
-426 -1301 -670 -1996 -725 -169 -14 -568 -7 -715 12 -99 13 -130 17 -185 25
-98 15 -188 31 -194 35 -3 1 -23 6 -44 9 -225 36 -869 248 -939 310 -30 26
-45 66 -53 136 -6 59 -40 324 -51 402 -4 26 -4 58 0 72 9 35 43 34 148 -5 235
-87 516 -161 743 -195 28 -5 52 -9 55 -9 3 -1 37 -5 75 -9 39 -5 79 -10 89
-12 11 -2 62 -6 115 -10 53 -3 114 -7 136 -9 108 -11 546 -4 705 10 130 12
363 40 420 51 14 2 63 11 110 20 420 75 876 231 1260 431 80 42 156 83 170 92
14 9 34 21 45 28 60 36 157 97 210 132 71 47 85 50 86 16z"/>
</g>
</svg>
