<svg xmlns="http://www.w3.org/2000/svg" viewBox="0 0 299.01 680" width="30" height="68"><defs><style>.cls-1{fill:#cd3376;fill-rule:evenodd;}</style></defs><title>Asset 2</title><g id="Layer_2" data-name="Layer 2"><g id="Layer_1-2" data-name="Layer 1"><path class="cls-1" d="M298.73,50.32h-.65v2h-.66v1.3l-3.91,4.58c-3.56,2.36-15.7,2.8-20.89,1.3H267.4v-.65h-4.57v-.65h-3.26V57.5h-3.26v-.65l-7.84-1.31v-.65l-4.56-.65v-.66h-2v-.65h-2v-.65h-2v-.66h-2V51h-1.95v-.65h-2v-.65l-5.88-1.31v-.65H225v-.66h-2V46.4l-3.26-.65v-.66h-1.31v-.65H216.5v-.65l-2.62-.66v-.65h-1.95v-.65h-1.31v-.66L208,40.52v-.65h-2c-2.9-1.32-5-3.75-8.48-4.57V36c1.59,1.88.47,5.06,1.3,7.84,1,3.39,1.61,8.36,2.61,11.75v3.92c3.2,10.7,2.76,24.41,5.88,35.27V100H208v4.57h.65v4.57h.66q.31,6.21.65,12.41h.65v5.88h.65v5.88h.66v5.88h.65v6.53h.65v7.19h.65v7.83h.66v7.84h.65v9.8h.65l.66,24.17h.65v20.24c1.9,6.85.65,19.24.65,27.44,0,4.66.36,10.76-.65,14.37v11.1q-.66,15.34-1.31,30.7h-.65v9.14h-.65v7.19h-.66v7.18h-.65v3.92h-.65v2h-.65v1.31h-.66q-.32,2.94-.65,5.88H210c-.22,1.52-.44,3-.65,4.57h-.66v1.3H208v2h-.65c-.44,1.31-.87,2.62-1.31,3.92h-.23C196,381.56,171,400.24,153,415c-20.86,17.13-41.31,28.36-47.88,34-7.52-5.74-33.32-18.26-55.12-35C26.6,396-.28,371.43,0,331c.51-73.65,77.78-88.46,105-25,18.07-42.47,61.75-49.66,86.72-25.11v-1.29c2.12-2.4-.38-11.24.66-15,1.25-4.55.65-12,.65-17.64q-.33-18.28-.65-36.58l-.66-22.2H191V177.69h-.65V167.23h-.65v-8.49h-.66v-6.53h-.65V145h-.65v-7.19h-.65v-6.53c-1.92-6.72-1.38-15.59-3.27-22.21q-.65-7.83-1.3-15.67c-3.09-10.74-2.74-23.94-5.88-34.62-.21-2.61-.43-5.23-.65-7.84-1.64-5.53-2.27-12.8-3.91-18.29l-.66-7.18h-.65V21.58h-.65V18.31h-.65V14.39h-.66l.66-6.53h.65V6.56L174.07,2h1.31V1.33l3.26-.65V0c3.64-.1,6.21.1,8.49,1.31V2h1.3v.66l2.61.65c.22.44.44.87.65,1.31l2.62.65c.21.44.43.87.65,1.31h1.3l1.31,1.3h1.3v.66h1.31v.65l2.61.65.65,1.31,2.61.65v.66l3.92,1.3v.65h2v.66h1.3v.65h1.31v.65l3.91,1.31v.65h2V19l2.61.65v.65h2v.66h1.3v.65h2v.65l3.27.66v.65l2.61.65v.66l3.91.65v.65h2v.65h2v.66h2v.65h2v.65h2v.66h2v.65l5.22.65v.66h2V32h2.61v.65h2.61v.66l6.53.65v.65L290.9,36v.65h1.3l4.57,3.92c.22.87.44,1.74.65,2.61C298.09,44.5,299.66,47.48,298.73,50.32Z"/></g></g></svg>
