<?xml version="1.0" encoding="utf-8"?>
<!-- Generator: Adobe Illustrator 23.0.2, SVG Export Plug-In . SVG Version: 6.00 Build 0)  -->
<svg version="1.1" id="Layer_1" xmlns="http://www.w3.org/2000/svg" xmlns:xlink="http://www.w3.org/1999/xlink" x="0px" y="0px"
	 viewBox="0 0 500 500" style="enable-background:new 0 0 500 500;" xml:space="preserve">
<style type="text/css">
	.st0{fill:#fff;}
</style>
<path class="st0" d="M247.4,9.9c116.9,1.1,215.1,76,243.5,183.2c13.1,49.6,6,97.8-15.4,143.5c-16.9,36-13.4,69,8.4,101.3
	c4.3,6.4,9.7,12.7,7.9,21.3c-2.3,11.3-13.4,17.7-27,15.9c-25.8-3.5-51.6-5.9-77.8-4.4c-32.5,1.8-64.1,8.7-95.8,14.8
	C156,511.8,24.5,419,4.5,283.2C-12.8,164.9,59.3,55.9,178.9,19.9c9.6-2.9,19.4-5.3,29.3-6.7C222.6,11.2,237.1,9.1,247.4,9.9
	 M416.8,270.2c-2.7,1.6-4.3,2.5-5.8,3.5c-52.4,35.3-110.6,52.1-173.4,54.7c-42.9,1.8-84.8-3.2-125-18.8c-7.5-2.9-8.2-0.5-7.3,6
	c1.5,10.3,2.8,20.6,3.9,31c0.5,5,2.5,7.8,7.3,9.8c107,44.2,207.3,33.1,300.8-35.7c2.6-1.9,5.9-3.6,5.3-7.8
	C420.7,298.9,418.8,285,416.8,270.2"/>
</svg>
