<?xml version="1.0" encoding="utf-8"?>
<!-- Generator: Adobe Illustrator 23.0.2, SVG Export Plug-In . SVG Version: 6.00 Build 0)  -->
<svg version="1.1" id="Layer_1" xmlns="http://www.w3.org/2000/svg" xmlns:xlink="http://www.w3.org/1999/xlink" x="0px" y="0px"
	 viewBox="0 0 300 449" style="enable-background:new 0 0 300 449;" xml:space="preserve">
<style type="text/css">
	.st0{fill-rule:evenodd;clip-rule:evenodd;fill:#CD3376;}
</style>
<path class="st0" d="M299.2,50.3c-0.2,0-0.4,0-0.7,0c0,0.7,0,1.3,0,2c-0.2,0-0.4,0-0.7,0c0,0.4,0,0.9,0,1.3c-1.3,1.5-2.6,3-3.9,4.6
	c-3.6,2.4-15.7,2.8-20.9,1.3c-1.7,0-3.5,0-5.2,0c0-0.2,0-0.4,0-0.7c-1.5,0-3,0-4.6,0c0-0.2,0-0.4,0-0.7c-1.1,0-2.2,0-3.3,0
	c0-0.2,0-0.4,0-0.7c-1.1,0-2.2,0-3.3,0c0-0.2,0-0.4,0-0.7c-2.6-0.4-5.2-0.9-7.8-1.3c0-0.2,0-0.4,0-0.7c-1.5-0.2-3-0.4-4.6-0.7
	c0-0.2,0-0.4,0-0.7c-0.7,0-1.3,0-2,0c0-0.2,0-0.4,0-0.7c-0.7,0-1.3,0-2,0c0-0.2,0-0.4,0-0.7c-0.7,0-1.3,0-2,0c0-0.2,0-0.4,0-0.7
	c-0.7,0-1.3,0-2,0c0-0.2,0-0.4,0-0.7c-0.7,0-1.3,0-2,0c0-0.2,0-0.4,0-0.7c-0.7,0-1.3,0-2,0c0-0.2,0-0.4,0-0.7
	c-2-0.4-3.9-0.9-5.9-1.3c0-0.2,0-0.4,0-0.7c-0.4,0-0.9,0-1.3,0c0-0.2,0-0.4,0-0.7c-0.7,0-1.3,0-2,0c0-0.2,0-0.4,0-0.7
	c-1.1-0.2-2.2-0.4-3.3-0.7c0-0.2,0-0.4,0-0.7c-0.4,0-0.9,0-1.3,0c0-0.2,0-0.4,0-0.7c-0.7,0-1.3,0-2,0c0-0.2,0-0.4,0-0.7
	c-0.9-0.2-1.7-0.4-2.6-0.7c0-0.2,0-0.4,0-0.7c-0.7,0-1.3,0-2,0c0-0.2,0-0.4,0-0.7c-0.4,0-0.9,0-1.3,0c0-0.2,0-0.4,0-0.7
	c-0.9-0.2-1.7-0.4-2.6-0.7c0-0.2,0-0.4,0-0.7c-0.7,0-1.3,0-2,0c-2.9-1.3-5-3.7-8.5-4.6c0,0.2,0,0.4,0,0.7c1.6,1.9,0.5,5.1,1.3,7.8
	c1,3.4,1.6,8.4,2.6,11.8c0,1.3,0,2.6,0,3.9c3.2,10.7,2.8,24.4,5.9,35.3c0,1.7,0,3.5,0,5.2c0.2,0,0.4,0,0.7,0c0,1.5,0,3,0,4.6
	c0.2,0,0.4,0,0.7,0c0,1.5,0,3,0,4.6c0.2,0,0.4,0,0.7,0c0.2,4.1,0.4,8.3,0.7,12.4c0.2,0,0.4,0,0.7,0c0,2,0,3.9,0,5.9
	c0.2,0,0.4,0,0.7,0c0,2,0,3.9,0,5.9c0.2,0,0.4,0,0.7,0c0,2,0,3.9,0,5.9c0.2,0,0.4,0,0.7,0c0,2.2,0,4.4,0,6.5c0.2,0,0.4,0,0.7,0
	c0,2.4,0,4.8,0,7.2c0.2,0,0.4,0,0.7,0c0,2.6,0,5.2,0,7.8c0.2,0,0.4,0,0.7,0c0,2.4,0,4.8,0,7.2c0,0.2,0,0.4,0,0.7c0.2,0,0.4,0,0.7,0
	c0,3.3,0,6.5,0,9.8c0.2,0,0.4,0,0.7,0c0.2,8.1,0.4,16.1,0.7,24.2c0.2,0,0.4,0,0.7,0c0,6.7,0,13.5,0,20.2c1.9,6.8,0.7,19.2,0.7,27.4
	c0,4.7,0.4,10.8-0.7,14.4c0,3.7,0,7.4,0,11.1c-0.4,10.2-0.9,20.5-1.3,30.7c-0.2,0-0.4,0-0.7,0c0,3,0,6.1,0,9.1c-0.2,0-0.4,0-0.7,0
	c0,2.4,0,4.8,0,7.2c-0.2,0-0.4,0-0.7,0c0,2.4,0,4.8,0,7.2c-0.2,0-0.4,0-0.7,0c0,1.3,0,2.6,0,3.9c-0.2,0-0.4,0-0.7,0c0,0.7,0,1.3,0,2
	c-0.2,0-0.4,0-0.7,0c0,0.4,0,0.9,0,1.3c-0.2,0-0.4,0-0.7,0c-0.2,2-0.4,3.9-0.7,5.9c-0.2,0-0.4,0-0.7,0c-0.2,1.5-0.4,3-0.7,4.6
	c-0.2,0-0.4,0-0.7,0c0,0.4,0,0.9,0,1.3c-0.2,0-0.4,0-0.7,0c0,0.7,0,1.3,0,2c-0.2,0-0.4,0-0.7,0c-0.4,1.3-0.9,2.6-1.3,3.9
	c-0.1,0-0.2,0-0.2,0c-9.8,26.9-34.8,45.5-52.8,60.3c-20.9,17.1-41.3,28.4-47.9,34c-7.5-5.7-33.3-18.3-55.1-35
	c-23.4-18-50.3-42.6-50-83c0.5-73.6,77.8-88.5,105-25c18.1-42.5,61.8-49.7,86.7-25.1c0-0.4,0-0.9,0-1.3c2.1-2.4-0.4-11.2,0.7-15
	c1.2-4.5,0.7-12,0.7-17.6c-0.2-12.2-0.4-24.4-0.7-36.6c-0.2-7.4-0.4-14.8-0.7-22.2c-0.2,0-0.4,0-0.7,0c0-3.5,0-7,0-10.5
	c-0.2,0-0.4,0-0.7,0c0-3.5,0-7,0-10.5c-0.2,0-0.4,0-0.7,0c0-2.8,0-5.7,0-8.5c-0.2,0-0.4,0-0.7,0c0-2.2,0-4.4,0-6.5
	c-0.2,0-0.4,0-0.7,0c0-2.4,0-4.8,0-7.2c-0.2,0-0.4,0-0.7,0c0-2.4,0-4.8,0-7.2c-0.2,0-0.4,0-0.7,0c0-2.2,0-4.4,0-6.5
	c-1.9-6.7-1.4-15.6-3.3-22.2c-0.4-5.2-0.9-10.5-1.3-15.7c-3.1-10.7-2.7-23.9-5.9-34.6c-0.2-2.6-0.4-5.2-0.7-7.8
	c-1.6-5.5-2.3-12.8-3.9-18.3c-0.2-2.4-0.4-4.8-0.7-7.2c-0.2,0-0.4,0-0.7,0c0-1.3,0-2.6,0-3.9c-0.2,0-0.4,0-0.7,0c0-1.1,0-2.2,0-3.3
	c-0.2,0-0.4,0-0.7,0c0-1.3,0-2.6,0-3.9c-0.2,0-0.4,0-0.7,0c0.2-2.2,0.4-4.4,0.7-6.5c0.2,0,0.4,0,0.7,0c0-0.4,0-0.9,0-1.3
	c1.3-1.5,2.6-3,3.9-4.6c0.4,0,0.9,0,1.3,0c0-0.2,0-0.4,0-0.7c1.1-0.2,2.2-0.4,3.3-0.7c0-0.2,0-0.4,0-0.7c3.6-0.1,6.2,0.1,8.5,1.3
	c0,0.2,0,0.4,0,0.7c0.4,0,0.9,0,1.3,0c0,0.2,0,0.4,0,0.7c0.9,0.2,1.7,0.4,2.6,0.7c0.2,0.4,0.4,0.9,0.7,1.3c0.9,0.2,1.7,0.4,2.6,0.7
	c0.2,0.4,0.4,0.9,0.7,1.3c0.4,0,0.9,0,1.3,0l1.3,1.3c0.4,0,0.9,0,1.3,0c0,0.2,0,0.4,0,0.7c0.4,0,0.9,0,1.3,0c0,0.2,0,0.4,0,0.7
	c0.9,0.2,1.7,0.4,2.6,0.7c0.2,0.4,0.4,0.9,0.7,1.3c0.9,0.2,1.7,0.4,2.6,0.7c0,0.2,0,0.4,0,0.7c1.3,0.4,2.6,0.9,3.9,1.3
	c0,0.2,0,0.4,0,0.7c0.7,0,1.3,0,2,0c0,0.2,0,0.4,0,0.7c0.4,0,0.9,0,1.3,0c0,0.2,0,0.4,0,0.7c0.4,0,0.9,0,1.3,0c0,0.2,0,0.4,0,0.7
	c1.3,0.4,2.6,0.9,3.9,1.3c0,0.2,0,0.4,0,0.7c0.7,0,1.3,0,2,0c0,0.2,0,0.4,0,0.7c0.9,0.2,1.7,0.4,2.6,0.7c0,0.2,0,0.4,0,0.7
	c0.7,0,1.3,0,2,0c0,0.2,0,0.4,0,0.7c0.4,0,0.9,0,1.3,0c0,0.2,0,0.4,0,0.7c0.7,0,1.3,0,2,0c0,0.2,0,0.4,0,0.7
	c1.1,0.2,2.2,0.4,3.3,0.7c0,0.2,0,0.4,0,0.7c0.9,0.2,1.7,0.4,2.6,0.7c0,0.2,0,0.4,0,0.7c1.3,0.2,2.6,0.4,3.9,0.7c0,0.2,0,0.4,0,0.7
	c0.7,0,1.3,0,2,0c0,0.2,0,0.4,0,0.7c0.7,0,1.3,0,2,0c0,0.2,0,0.4,0,0.7c0.7,0,1.3,0,2,0c0,0.2,0,0.4,0,0.7c0.7,0,1.3,0,2,0
	c0,0.2,0,0.4,0,0.7c0.7,0,1.3,0,2,0c0,0.2,0,0.4,0,0.7c0.7,0,1.3,0,2,0c0,0.2,0,0.4,0,0.7c1.7,0.2,3.5,0.4,5.2,0.7
	c0,0.2,0,0.4,0,0.7c0.7,0,1.3,0,2,0c0,0.2,0,0.4,0,0.7c0.9,0,1.7,0,2.6,0c0,0.2,0,0.4,0,0.7c0.9,0,1.7,0,2.6,0c0,0.2,0,0.4,0,0.7
	c2.2,0.2,4.4,0.4,6.5,0.7c0,0.2,0,0.4,0,0.7c7.4,0.4,14.8,0.9,22.2,1.3c0,0.2,0,0.4,0,0.7c0.4,0,0.9,0,1.3,0c1.5,1.3,3,2.6,4.6,3.9
	c0.2,0.9,0.4,1.7,0.7,2.6C298.6,44.5,300.1,47.5,299.2,50.3z"/>
</svg>
