<svg xmlns="http://www.w3.org/2000/svg" width="105.48" height="158.4" version="1.1">
   <path fill-rule="evenodd"  fill="rgb(204, 51, 118)"
 d="M298.714,50.314 C298.497,50.314 298.279,50.314 298.062,50.314 C298.062,50.967 298.062,51.620 298.062,52.274 C297.844,52.274 297.627,52.274 297.409,52.274 C297.409,52.709 297.409,53.144 297.409,53.580 C296.104,55.104 294.798,56.628 293.493,58.152 C289.941,60.515 277.801,60.960 272.609,59.458 C270.869,59.458 269.128,59.458 267.388,59.458 C267.388,59.241 267.388,59.023 267.388,58.805 C265.865,58.805 264.342,58.805 262.819,58.805 C262.819,58.587 262.819,58.370 262.819,58.152 C261.732,58.152 260.644,58.152 259.556,58.152 C259.556,57.934 259.556,57.717 259.556,57.499 C258.468,57.499 257.380,57.499 256.293,57.499 C256.293,57.281 256.293,57.063 256.293,56.846 C253.683,56.410 251.071,55.975 248.461,55.539 C248.461,55.322 248.461,55.104 248.461,54.886 C246.938,54.668 245.415,54.451 243.893,54.233 C243.893,54.015 243.893,53.798 243.893,53.580 C243.240,53.580 242.587,53.580 241.935,53.580 C241.935,53.362 241.935,53.144 241.935,52.927 C241.282,52.927 240.629,52.927 239.977,52.927 C239.977,52.709 239.977,52.491 239.977,52.274 C239.324,52.274 238.671,52.274 238.019,52.274 C238.019,52.056 238.019,51.838 238.019,51.620 C237.366,51.620 236.714,51.620 236.061,51.620 C236.061,51.403 236.061,51.185 236.061,50.967 C235.408,50.967 234.756,50.967 234.103,50.967 C234.103,50.749 234.103,50.532 234.103,50.314 C233.450,50.314 232.798,50.314 232.145,50.314 C232.145,50.096 232.145,49.879 232.145,49.661 C230.187,49.225 228.229,48.790 226.271,48.355 C226.271,48.137 226.271,47.919 226.271,47.701 C225.836,47.701 225.401,47.701 224.966,47.701 C224.966,47.484 224.966,47.266 224.966,47.048 C224.313,47.048 223.661,47.048 223.008,47.048 C223.008,46.831 223.008,46.613 223.008,46.395 C221.921,46.177 220.833,45.960 219.745,45.742 C219.745,45.524 219.745,45.306 219.745,45.089 C219.310,45.089 218.875,45.089 218.440,45.089 C218.440,44.871 218.440,44.653 218.440,44.436 C217.787,44.436 217.134,44.436 216.482,44.436 C216.482,44.218 216.482,44.000 216.482,43.782 C215.612,43.565 214.741,43.347 213.871,43.129 C213.871,42.912 213.871,42.694 213.871,42.476 C213.219,42.476 212.566,42.476 211.913,42.476 C211.913,42.258 211.913,42.041 211.913,41.823 C211.478,41.823 211.043,41.823 210.608,41.823 C210.608,41.605 210.608,41.387 210.608,41.170 C209.738,40.952 208.868,40.734 207.997,40.517 C207.997,40.299 207.997,40.081 207.997,39.863 C207.345,39.863 206.692,39.863 206.039,39.863 C203.136,38.550 201.081,36.117 197.555,35.291 C197.555,35.509 197.555,35.727 197.555,35.944 C199.146,37.822 198.030,41.002 198.860,43.782 C199.874,47.175 200.463,52.144 201.471,55.539 C201.471,56.846 201.471,58.152 201.471,59.458 C204.664,70.153 204.224,83.866 207.345,94.729 C207.345,96.471 207.345,98.213 207.345,99.954 C207.562,99.954 207.780,99.954 207.997,99.954 C207.997,101.478 207.997,103.003 207.997,104.527 C208.215,104.527 208.433,104.527 208.650,104.527 C208.650,106.051 208.650,107.575 208.650,109.099 C208.868,109.099 209.085,109.099 209.303,109.099 C209.520,113.235 209.738,117.373 209.955,121.509 C210.173,121.509 210.390,121.509 210.608,121.509 C210.608,123.468 210.608,125.428 210.608,127.387 C210.825,127.387 211.043,127.387 211.261,127.387 C211.261,129.347 211.261,131.307 211.261,133.266 C211.478,133.266 211.696,133.266 211.913,133.266 C211.913,135.225 211.913,137.185 211.913,139.144 C212.131,139.144 212.348,139.144 212.566,139.144 C212.566,141.321 212.566,143.499 212.566,145.676 C212.783,145.676 213.001,145.676 213.219,145.676 C213.219,148.071 213.219,150.466 213.219,152.861 C213.436,152.861 213.654,152.861 213.871,152.861 C213.871,155.473 213.871,158.086 213.871,160.699 C214.089,160.699 214.306,160.699 214.524,160.699 C214.524,163.093 214.524,165.489 214.524,167.883 C214.524,168.101 214.524,168.319 214.524,168.537 C214.741,168.537 214.959,168.537 215.176,168.537 C215.176,171.802 215.176,175.069 215.176,178.334 C215.394,178.334 215.612,178.334 215.829,178.334 C216.047,186.389 216.264,194.446 216.482,202.501 C216.699,202.501 216.917,202.501 217.134,202.501 C217.134,209.250 217.134,216.001 217.134,222.749 C219.037,229.595 217.786,241.986 217.787,250.182 C217.788,254.847 218.147,260.945 217.134,264.552 C217.134,268.253 217.134,271.955 217.134,275.656 C216.699,285.887 216.264,296.122 215.829,306.354 C215.612,306.354 215.394,306.354 215.176,306.354 C215.176,309.402 215.176,312.451 215.176,315.499 C214.959,315.499 214.741,315.499 214.524,315.499 C214.524,317.893 214.524,320.289 214.524,322.683 C214.306,322.683 214.089,322.683 213.871,322.683 C213.871,325.078 213.871,327.473 213.871,329.868 C213.654,329.868 213.436,329.868 213.219,329.868 C213.219,331.174 213.219,332.481 213.219,333.787 C213.001,333.787 212.783,333.787 212.566,333.787 C212.566,334.440 212.566,335.093 212.566,335.747 C212.348,335.747 212.131,335.747 211.913,335.747 C211.913,336.182 211.913,336.618 211.913,337.053 C211.696,337.053 211.478,337.053 211.261,337.053 C211.043,339.012 210.825,340.972 210.608,342.931 C210.390,342.931 210.173,342.931 209.955,342.931 C209.738,344.455 209.520,345.980 209.303,347.504 C209.085,347.504 208.868,347.504 208.650,347.504 C208.650,347.939 208.650,348.374 208.650,348.810 C208.433,348.810 208.215,348.810 207.997,348.810 C207.997,349.463 207.997,350.116 207.997,350.769 C207.780,350.769 207.562,350.769 207.345,350.769 C206.910,352.076 206.475,353.382 206.039,354.688 C205.962,354.688 205.885,354.688 205.808,354.688 C195.988,381.559 170.997,400.231 153.000,415.000 C132.135,432.123 111.691,443.352 105.112,448.982 C97.596,443.244 71.801,430.725 50.000,414.000 C26.585,396.039 -0.293,371.424 -0.011,330.975 C0.497,257.326 77.768,242.520 104.952,305.976 C123.031,263.503 166.707,256.314 191.681,280.864 C191.681,280.434 191.681,280.004 191.681,279.575 C193.797,277.179 191.294,268.336 192.334,264.552 C193.583,260.009 192.987,252.555 192.987,246.916 C192.769,234.725 192.552,222.530 192.334,210.339 C192.117,202.937 191.899,195.533 191.681,188.132 C191.464,188.132 191.246,188.132 191.029,188.132 C191.029,184.648 191.029,181.164 191.029,177.681 C190.811,177.681 190.594,177.681 190.376,177.681 C190.376,174.198 190.376,170.714 190.376,167.230 C190.159,167.230 189.941,167.230 189.723,167.230 C189.723,164.400 189.723,161.569 189.723,158.739 C189.506,158.739 189.288,158.739 189.071,158.739 C189.071,156.562 189.071,154.385 189.071,152.208 C188.853,152.208 188.636,152.208 188.418,152.208 C188.418,149.813 188.418,147.417 188.418,145.023 C188.201,145.023 187.983,145.023 187.766,145.023 C187.766,142.628 187.766,140.233 187.766,137.838 C187.548,137.838 187.330,137.838 187.113,137.838 C187.113,135.661 187.113,133.483 187.113,131.306 C185.201,124.583 185.739,115.719 183.850,109.099 C183.415,103.874 182.979,98.648 182.544,93.423 C179.453,82.690 179.802,69.483 176.671,58.805 C176.453,56.193 176.236,53.580 176.018,50.967 C174.377,45.438 173.747,38.168 172.102,32.679 C171.885,30.284 171.667,27.888 171.450,25.494 C171.232,25.494 171.014,25.494 170.797,25.494 C170.797,24.188 170.797,22.881 170.797,21.575 C170.579,21.575 170.362,21.575 170.144,21.575 C170.144,20.486 170.144,19.397 170.144,18.309 C169.927,18.309 169.709,18.309 169.492,18.309 C169.492,17.003 169.492,15.696 169.492,14.390 C169.274,14.390 169.056,14.390 168.839,14.390 C169.056,12.213 169.274,10.035 169.492,7.858 C169.709,7.858 169.927,7.858 170.144,7.858 C170.144,7.423 170.144,6.987 170.144,6.552 C171.449,5.028 172.755,3.504 174.060,1.980 C174.495,1.980 174.930,1.980 175.365,1.980 C175.365,1.762 175.365,1.544 175.365,1.327 C176.453,1.109 177.541,0.891 178.629,0.674 C178.629,0.456 178.629,0.238 178.629,0.020 C182.265,-0.086 184.841,0.120 187.113,1.327 C187.113,1.544 187.113,1.762 187.113,1.980 C187.548,1.980 187.983,1.980 188.418,1.980 C188.418,2.198 188.418,2.415 188.418,2.633 C189.288,2.851 190.159,3.069 191.029,3.286 C191.246,3.722 191.464,4.157 191.681,4.593 C192.551,4.810 193.422,5.028 194.292,5.246 C194.509,5.681 194.727,6.117 194.945,6.552 C195.380,6.552 195.815,6.552 196.250,6.552 L197.555,7.858 C197.990,7.858 198.425,7.858 198.860,7.858 C198.860,8.076 198.860,8.294 198.860,8.512 C199.295,8.512 199.731,8.512 200.166,8.512 C200.166,8.729 200.166,8.947 200.166,9.165 C201.036,9.382 201.906,9.600 202.776,9.818 C202.994,10.253 203.211,10.689 203.429,11.124 C204.299,11.342 205.169,11.560 206.039,11.777 C206.039,11.995 206.039,12.213 206.039,12.431 C207.345,12.866 208.650,13.301 209.955,13.737 C209.955,13.955 209.955,14.172 209.955,14.390 C210.608,14.390 211.261,14.390 211.913,14.390 C211.913,14.608 211.913,14.825 211.913,15.043 C212.348,15.043 212.783,15.043 213.219,15.043 C213.219,15.261 213.219,15.479 213.219,15.696 C213.654,15.696 214.089,15.696 214.524,15.696 C214.524,15.914 214.524,16.132 214.524,16.350 C215.829,16.785 217.135,17.220 218.440,17.656 C218.440,17.874 218.440,18.091 218.440,18.309 C219.092,18.309 219.745,18.309 220.398,18.309 C220.398,18.527 220.398,18.744 220.398,18.962 C221.268,19.180 222.138,19.398 223.008,19.615 C223.008,19.833 223.008,20.051 223.008,20.268 C223.661,20.268 224.313,20.268 224.966,20.268 C224.966,20.486 224.966,20.704 224.966,20.922 C225.401,20.922 225.836,20.922 226.271,20.922 C226.271,21.139 226.271,21.357 226.271,21.575 C226.924,21.575 227.577,21.575 228.229,21.575 C228.229,21.793 228.229,22.010 228.229,22.228 C229.317,22.446 230.405,22.663 231.492,22.881 C231.492,23.099 231.492,23.317 231.492,23.534 C232.363,23.752 233.233,23.970 234.103,24.187 C234.103,24.405 234.103,24.623 234.103,24.841 C235.408,25.058 236.714,25.276 238.019,25.494 C238.019,25.711 238.019,25.929 238.019,26.147 C238.671,26.147 239.324,26.147 239.977,26.147 C239.977,26.365 239.977,26.582 239.977,26.800 C240.629,26.800 241.282,26.800 241.935,26.800 C241.935,27.018 241.935,27.236 241.935,27.453 C242.587,27.453 243.240,27.453 243.893,27.453 C243.893,27.671 243.893,27.889 243.893,28.106 C244.545,28.106 245.198,28.106 245.851,28.106 C245.851,28.324 245.851,28.542 245.851,28.760 C246.503,28.760 247.156,28.760 247.808,28.760 C247.808,28.977 247.808,29.195 247.808,29.413 C248.461,29.413 249.114,29.413 249.766,29.413 C249.766,29.630 249.766,29.848 249.766,30.066 C251.507,30.284 253.247,30.501 254.988,30.719 C254.988,30.937 254.988,31.155 254.988,31.372 C255.640,31.372 256.293,31.372 256.945,31.372 C256.945,31.590 256.945,31.808 256.945,32.025 C257.816,32.025 258.686,32.025 259.556,32.025 C259.556,32.243 259.556,32.461 259.556,32.679 C260.426,32.679 261.296,32.679 262.167,32.679 C262.167,32.896 262.167,33.114 262.167,33.332 C264.342,33.549 266.518,33.767 268.693,33.985 C268.693,34.203 268.693,34.420 268.693,34.638 C276.089,35.073 283.487,35.509 290.883,35.944 C290.883,36.162 290.883,36.380 290.883,36.598 C291.318,36.598 291.753,36.598 292.188,36.598 C293.711,37.904 295.234,39.210 296.757,40.517 C296.974,41.387 297.192,42.258 297.409,43.129 C298.073,44.498 299.644,47.478 298.714,50.314 Z"/>
</svg>